<?xml version="1.0" standalone="no"?>
<!DOCTYPE svg PUBLIC "-//W3C//DTD SVG 20010904//EN"
 "http://www.w3.org/TR/2001/REC-SVG-20010904/DTD/svg10.dtd">
<svg version="1.0" xmlns="http://www.w3.org/2000/svg"
 width="207.000000pt" height="207.000000pt" viewBox="0 0 207.000000 207.000000"
 preserveAspectRatio="xMidYMid meet">

<g transform="translate(0.000000,207.000000) scale(0.100000,-0.100000)"
fill="#000000" stroke="none">
<path d="M479 1903 c-78 -197 -83 -368 -18 -547 64 -175 207 -331 374 -405 82
-37 102 -43 179 -57 161 -28 317 25 442 150 153 153 198 361 122 569 l-21 58
-51 -6 c-129 -16 -253 -82 -334 -177 -13 -16 -28 -28 -32 -28 -5 0 -24 31 -43
69 -95 189 -293 343 -495 386 -101 21 -111 20 -123 -12z m136 -49 c58 -10 161
-59 225 -106 114 -84 198 -199 244 -340 43 -128 32 -354 -21 -435 -19 -29 -32
-28 -143 12 -72 26 -176 88 -231 137 -84 74 -160 204 -194 329 -23 89 -17 255
15 352 19 61 24 68 43 64 12 -3 40 -9 62 -13z m921 -292 c23 -53 23 -221 0
-287 -58 -168 -208 -301 -363 -322 -45 -6 -46 -6 -39 18 38 125 40 138 39 281
l-2 147 62 62 c46 46 83 72 142 100 77 36 121 49 138 41 4 -2 14 -20 23 -40z"/>
<path d="M493 793 c-4 -9 4 -56 16 -103 23 -85 46 -168 96 -355 15 -55 31
-108 36 -117 9 -17 35 -18 368 -18 311 0 360 2 371 15 12 15 26 60 95 325 14
52 34 127 45 166 11 39 18 79 14 88 -6 14 -55 16 -520 16 -476 0 -515 -1 -521
-17z m285 -96 c20 -57 20 -57 -81 -57 l-94 0 -11 39 c-7 21 -12 41 -12 45 0 3
42 6 93 6 l93 0 12 -33z m396 11 c-22 -73 -9 -68 -162 -68 l-139 0 -11 39 c-7
21 -12 41 -12 45 0 3 75 6 166 6 l165 0 -7 -22z m266 3 c0 -11 -4 -31 -10 -45
-9 -25 -12 -26 -100 -26 -99 0 -103 4 -80 64 9 25 12 26 100 26 82 0 90 -2 90
-19z m-634 -159 c12 -8 34 -66 34 -89 0 -11 -19 -13 -92 -11 l-92 3 -14 37
c-23 60 -14 68 75 68 43 0 83 -4 89 -8z m318 0 c3 -5 -1 -28 -8 -53 l-13 -44
-89 0 -88 0 -14 37 c-24 63 -17 68 102 68 58 0 107 -4 110 -8z m270 0 c3 -5
-1 -28 -8 -53 l-13 -44 -92 -3 -91 -3 0 26 c0 14 7 39 15 55 15 30 17 30 100
30 46 0 86 -4 89 -8z m-523 -209 c5 -15 9 -36 7 -47 -3 -18 -11 -21 -68 -24
-35 -2 -74 -1 -85 2 -23 6 -45 44 -45 76 0 18 7 20 90 20 89 0 91 0 101 -27z
m209 21 c0 -4 -5 -24 -12 -46 -18 -62 -86 -66 -107 -6 -19 55 -17 58 54 58 36
0 65 -3 65 -6z m270 -3 c0 -18 -24 -76 -34 -83 -15 -10 -148 -10 -164 1 -11 6
-11 17 -2 50 l11 41 94 0 c52 0 95 -4 95 -9z"/>
</g>
</svg>
